<svg aria-hidden="true" style="width:0;height:0;position:absolute;overflow:hidden" xmlns="http://www.w3.org/2000/svg"><defs><symbol id="star_small" viewBox="0 0 1 1"><path fill="#f1f6f6" style="fill:var(--color1,#f1f6f6)" d="M.501.027C.505.015.516.007.529.007s.024.008.028.02l.097.3a.03.03 0 0 0 .028.02h.316c.016 0 .029.013.029.029 0 .01-.005.018-.012.024L.76.585a.03.03 0 0 0-.012.024.03.03 0 0 0 .002.009l.097.3.001.009a.029.029 0 0 1-.029.029A.024.024 0 0 1 .802.95L.547.765C.542.761.536.759.53.759S.517.761.513.765L.258.95a.027.027 0 0 1-.017.006.029.029 0 0 1-.029-.029L.214.918l.098-.3.001-.009A.031.031 0 0 0 .301.585L.046.4A.03.03 0 0 1 .034.376C.034.36.047.347.063.347h.316a.03.03 0 0 0 .028-.02l.097-.3z"/></symbol><symbol id="star" viewBox="0 0 1 1"><path fill="#F1F6F6" style="fill:var(--color1,#f1f6f6)" d="M.464.028C.469.012.483.001.5.001s.032.011.036.027l.092.296a.04.04 0 0 0 .036.028h.298c.037 0 .052.049.022.072L.743.607a.04.04 0 0 0-.014.045l.092.296c.011.037-.029.067-.059.045L.521.81C.515.805.507.802.499.802S.483.805.477.81L.236.993C.206 1.016.166.985.177.948L.269.652A.039.039 0 0 0 .255.608L.014.425C-.016.402-.001.353.036.353h.298A.039.039 0 0 0 .37.326L.462.03z"/></symbol><symbol id="menu" viewBox="0 0 2 1"><path fill="none" stroke="#f4f4f4" style="stroke:var(--color2,#f4f4f4)" stroke-linecap="round" stroke-miterlimit="10" stroke-width=".158" d="M.105.105h1.474M.105.526h1.474M.105.895h1.474"/></symbol><symbol id="close" viewBox="0 0 1 1"><path fill="none" stroke="#f4f4f4" style="stroke:var(--color2,#f4f4f4)" stroke-linejoin="round" stroke-linecap="round" stroke-width=".091" d="M.955.955.046.046M.955.045.046.954"/></symbol><symbol id="right" viewBox="0 0 1 1"><path fill="#395c4b" style="fill:var(--color1,#395c4b)" d="M.047 1A.05.05 0 0 0 .08.987L.543.531a.046.046 0 0 0 0-.064L.08.011A.044.044 0 0 0 .05 0a.044.044 0 0 0-.033.014.048.048 0 0 0-.014.033c0 .011.004.021.011.029l.43.423-.43.423C.006.93 0 .942 0 .954s.005.024.013.032a.05.05 0 0 0 .033.013z"/></symbol><symbol id="left" viewBox="0 0 1 1"><path fill="#a3a5a3" style="fill:var(--color3,#a3a5a3)" d="M.509 1A.049.049 0 0 1 .476.987L.013.531a.046.046 0 0 1 0-.064L.476.011A.044.044 0 0 1 .506 0c.013 0 .025.005.033.014.008.008.014.02.014.033a.044.044 0 0 1-.011.029l-.43.423.43.423a.046.046 0 0 1 0 .064.05.05 0 0 1-.033.013z"/></symbol><symbol id="bus" viewBox="0 0 1 1"><path fill="#395c4b" style="fill:var(--color1,#395c4b)" d="M.118 1C.103 1 .091.995.081.985S.066.963.066.948V.841A.215.215 0 0 1 .029.784L.028.783a.162.162 0 0 1-.014-.07V.216c0-.072.034-.125.101-.159s.173-.05.318-.05c.15 0 .257.016.322.048s.097.086.097.161v.497c0 .025-.005.049-.014.07S.815.825.8.841v.107C.8.963.795.975.785.985S.763 1 .748 1H.696C.681 1 .669.995.659.985S.644.963.644.948V.896H.226v.052c0 .015-.005.027-.015.037S.189 1 .174 1H.122zm0-.575h.627V.268H.118v.157zm.13.314C.27.739.288.731.304.716S.327.682.327.66A.079.079 0 0 0 .248.581.079.079 0 0 0 .169.66a.079.079 0 0 0 .079.079zm.366 0C.636.739.654.731.67.716S.693.682.693.66A.079.079 0 0 0 .614.581.079.079 0 0 0 .535.66a.079.079 0 0 0 .079.079z"/></symbol><symbol id="place" viewBox="0 0 1 1"><path fill="#f1f6f6" style="fill:var(--color4,#f1f6f6)" d="M.353 0A.351.351 0 0 0 0 .35C0 .613.353 1 .353 1S.706.613.706.35A.351.351 0 0 0 .353 0zm0 .475A.125.125 0 0 1 .264.438.124.124 0 0 1 .227.35.126.126 0 0 1 .353.225.126.126 0 0 1 .479.35a.12.12 0 0 1-.037.088.125.125 0 0 1-.089.037z"/></symbol><symbol id="phone" viewBox="0 0 1 1"><path fill="#f1f6f6" style="fill:var(--color4,#f1f6f6)" d="M.494 0H.118a.124.124 0 0 0-.083.033.111.111 0 0 0-.034.08v.773c0 .03.012.059.034.08s.051.033.083.033h.376A.124.124 0 0 0 .577.966a.111.111 0 0 0 .034-.08V.113a.11.11 0 0 0-.034-.08A.117.117 0 0 0 .494 0zM.306.955C.267.955.235.925.235.887S.266.819.306.819c.039 0 .071.03.071.068S.346.955.306.955zM.517.773H.094V.137h.423v.636z"/></symbol><symbol id="email" viewBox="0 0 1 1"><path fill="#f1f6f6" style="fill:var(--color4,#f1f6f6)" d="M1.177 0H.131a.127.127 0 0 0-.13.125L0 .875C0 .944.059 1 .131 1h1.046a.128.128 0 0 0 .131-.125v-.75A.128.128 0 0 0 1.177 0zm-.026.266L.689.542C.679.548.667.551.654.551S.629.548.619.541L.157.265A.058.058 0 0 1 .14.251.053.053 0 0 1 .128.219c0-.011.003-.02.009-.028A.054.054 0 0 1 .152.176C.161.17.172.167.184.167s.023.003.032.01l.438.262.438-.262c.009-.006.02-.009.032-.009s.023.004.032.01a.054.054 0 0 1 .015.015.054.054 0 0 1 .008.028l-.002.013c-.002.007-.005.013-.01.019s-.01.01-.017.014z"/></symbol><symbol id="facebook" viewBox="0 0 1 1"><path fill="#f1f6f6" style="fill:var(--color4,#f1f6f6)" d="M.5.012a.491.491 0 0 0-.076.976V.645H.3V.503h.124V.395c0-.123.073-.191.185-.191.053 0 .109.009.109.009v.121H.656c-.061 0-.08.038-.08.076v.092h.136L.69.644H.576v.343A.49.49 0 0 0 .99.503V.502A.492.492 0 0 0 .5.011z"/></symbol><symbol id="instagram" viewBox="0 0 1 1"><path fill="#f1f6f6" style="fill:var(--color4,#f1f6f6)" d="M.294.01h.412C.863.01.99.137.99.294v.412A.284.284 0 0 1 .706.99H.294A.284.284 0 0 1 .01.706V.294C.01.137.137.01.294.01zm-.01.098a.176.176 0 0 0-.176.176v.431c0 .098.079.176.176.176h.431A.176.176 0 0 0 .891.715V.284A.176.176 0 0 0 .715.108H.284zm.473.073c.034 0 .061.027.061.061S.791.303.757.303.696.276.696.242.723.181.757.181zM.5.255a.245.245 0 0 1 0 .49.245.245 0 0 1 0-.49zm0 .098a.147.147 0 0 0 0 .294.147.147 0 0 0 0-.294z"/></symbol><symbol id="telegram" viewBox="0 0 1 1"><path fill="#f1f6f6" style="fill:var(--color4,#f1f6f6)" d="M.5.01a.49.49 0 1 0 0 .98.49.49 0 1 0 0-.98zm.156.743a.035.035 0 0 1-.032.022A.034.034 0 0 1 .607.77L.474.667.389.746C.387.748.384.749.38.749L.375.748.391.601h.001V.598L.641.371C.651.362.648.36.648.36.649.349.63.36.63.36L.313.564.181.519S.161.512.159.496C.157.48.182.471.182.471L.707.262S.75.243.75.275L.656.753z"/></symbol><symbol id="icon-close" viewBox="0 0 1 1"><path fill="none" stroke="#395c4b" style="stroke:var(--color1,#395c4b)" stroke-linejoin="round" stroke-linecap="round" stroke-width=".111" d="M.917.917.084.084M.917.083.084.916"/></symbol></defs></svg>