<svg aria-hidden="true" style="width:0;height:0;position:absolute;overflow:hidden" xmlns="http://www.w3.org/2000/svg"><defs><symbol id="phone" viewBox="0 0 20 32"><path fill="#f1f6f6" style="fill:var(--color1,#f1f6f6)" d="M15.795 0H3.761c-.997 0-1.954.383-2.659 1.065S.001 2.672.001 3.636v24.727c0 .964.396 1.889 1.101 2.571s1.662 1.065 2.659 1.065h12.034c.997 0 1.954-.383 2.659-1.065s1.102-1.607 1.102-2.571V3.636c0-.964-.396-1.889-1.102-2.571S16.792 0 15.795 0zM9.778 30.546c-1.249 0-2.256-.975-2.256-2.182s1.008-2.182 2.256-2.182c1.249 0 2.256.974 2.256 2.182s-1.008 2.182-2.256 2.182zm6.769-5.819H3.009V4.363h13.538v20.364z"/></symbol><symbol id="place" viewBox="0 0 23 32"><path fill="#f1f6f6" style="fill:var(--color1,#f1f6f6)" d="M11.294 0C5.05 0 0 5.008 0 11.2 0 19.6 11.294 32 11.294 32s11.294-12.4 11.294-20.8c0-6.192-5.05-11.2-11.294-11.2zm0 15.2c-1.07 0-2.096-.421-2.852-1.172S7.261 12.26 7.261 11.2c0-1.061.425-2.078 1.181-2.828S10.224 7.2 11.294 7.2c1.07 0 2.096.421 2.852 1.172s1.181 1.768 1.181 2.828c0 1.061-.425 2.078-1.181 2.828S12.364 15.2 11.294 15.2z"/></symbol><symbol id="star" viewBox="0 0 32 32"><path fill="#395c4b" style="fill:var(--color2,#395c4b)" d="M14.842.881a1.201 1.201 0 0 1 2.316 0l2.942 9.484c.163.525.631.881 1.158.881h9.522c1.18 0 1.67 1.581.716 2.307l-7.703 5.862a1.31 1.31 0 0 0-.442 1.426l2.942 9.484c.364 1.175-.919 2.152-1.874 1.426l-7.703-5.862a1.172 1.172 0 0 0-1.431 0l-7.703 5.862c-.954.726-2.238-.251-1.874-1.426l2.942-9.484a1.311 1.311 0 0 0-.442-1.426L.505 13.553c-.954-.726-.464-2.307.716-2.307h9.522c.527 0 .995-.356 1.158-.881L14.843.881z"/></symbol><symbol id="star_small" viewBox="0 0 1 1"><path fill="#f1f6f6" style="fill:var(--color1,#f1f6f6)" d="M.501.027C.505.015.516.007.529.007s.024.008.028.02l.097.3a.03.03 0 0 0 .028.02h.316c.016 0 .029.013.029.029 0 .01-.005.018-.012.024L.76.585a.03.03 0 0 0-.012.024.03.03 0 0 0 .002.009l.097.3.001.009a.029.029 0 0 1-.029.029A.024.024 0 0 1 .802.95L.547.765C.542.761.536.759.53.759S.517.761.513.765L.258.95a.027.027 0 0 1-.017.006.029.029 0 0 1-.029-.029L.214.918l.098-.3.001-.009A.031.031 0 0 0 .301.585L.046.4A.03.03 0 0 1 .034.376C.034.36.047.347.063.347h.316a.03.03 0 0 0 .028-.02l.097-.3z"/></symbol><symbol id="telegram" viewBox="0 0 32 32"><path d="M15.991.314a15.686 15.686 0 1 0-.001 31.37A15.686 15.686 0 0 0 15.992.316zm4.988 23.768a1.106 1.106 0 0 1-1.572.552l-4.259-3.31-2.733 2.522a.472.472 0 0 1-.447.061l.524-4.689.016.014.011-.093s7.663-6.977 7.975-7.274c.317-.296.212-.361.212-.361.019-.361-.566 0-.566 0L9.986 18.036l-4.227-1.44s-.649-.232-.711-.745c-.064-.508.731-.784.731-.784L22.59 8.388s1.382-.615 1.382.405l-2.993 15.288z"/></symbol><symbol id="bus" viewBox="0 0 28 32"><path fill="#395c4b" style="fill:var(--color2,#395c4b)" d="M3.765 32c-.474 0-.872-.161-1.193-.482-.32-.32-.48-.717-.48-1.191v-3.43a7.134 7.134 0 0 1-1.213-1.862 5.39 5.39 0 0 1-.46-2.237V6.903c0-2.315 1.074-4.009 3.221-5.083C5.787.747 9.175.21 13.805.21c4.796 0 8.227.516 10.29 1.548s3.095 2.747 3.095 5.145v15.895a5.39 5.39 0 0 1-.46 2.237 7.117 7.117 0 0 1-1.213 1.862v3.43c0 .474-.161.871-.482 1.191-.32.321-.717.482-1.191.482h-1.673c-.474 0-.871-.161-1.191-.482a1.615 1.615 0 0 1-.482-1.191v-1.673H7.112v1.673c0 .474-.16.871-.48 1.191A1.621 1.621 0 0 1 5.439 32H3.766zm0-18.405h20.078v-5.02H3.765v5.02zm4.183 10.039c.697 0 1.29-.244 1.777-.733.489-.487.733-1.08.733-1.777s-.244-1.289-.733-1.777c-.487-.489-1.08-.733-1.777-.733s-1.289.244-1.777.733c-.489.487-.733 1.08-.733 1.777s.244 1.289.733 1.777c.487.489 1.08.733 1.777.733zm11.712 0c.697 0 1.289-.244 1.777-.733.489-.487.733-1.08.733-1.777s-.244-1.289-.733-1.777c-.487-.489-1.08-.733-1.777-.733s-1.289.244-1.777.733c-.489.487-.733 1.08-.733 1.777s.244 1.289.733 1.777c.487.489 1.08.733 1.777.733z"/></symbol><symbol id="email" viewBox="0 0 42 32"><path fill="#f1f6f6" style="fill:var(--color1,#f1f6f6)" d="M37.661 0H4.184C1.882 0 .02 1.8.02 4l-.021 24c0 2.2 1.883 4 4.185 4h33.477c2.302 0 4.185-1.8 4.185-4V4c0-2.2-1.883-4-4.185-4zm-.837 8.5-14.793 8.84a2.2 2.2 0 0 1-2.218 0L5.02 8.5c-.21-.113-.394-.265-.54-.447s-.253-.391-.312-.614c-.06-.223-.071-.455-.034-.682s.122-.445.249-.64c.128-.195.295-.363.493-.495s.421-.223.657-.269a1.828 1.828 0 0 1 1.371.267L20.922 14 34.94 5.62a1.845 1.845 0 0 1 2.028.002c.198.131.365.3.493.495a1.636 1.636 0 0 1-.098 1.936c-.147.182-.33.335-.54.447z"/></symbol><symbol id="facebook" viewBox="0 0 32 32"><path d="M16 .377C7.373.377.314 7.42.314 16.095c0 7.843 5.741 14.353 13.239 15.529v-10.98H9.569v-4.549h3.984v-3.467c0-3.937 2.337-6.102 5.929-6.102 1.71 0 3.498.298 3.498.298v3.875h-1.976c-1.945 0-2.557 1.208-2.557 2.447v2.949h4.361l-.706 4.549h-3.655v10.98a15.688 15.688 0 0 0 13.239-15.53C31.686 7.419 24.627.376 16 .376z"/></symbol><symbol id="cross" viewBox="0 0 32 32"><path d="M21 21 1 1m20 0L1 21" stroke="#395C4B" stroke-width="2" stroke-linecap="round" stroke-linejoin="round"/></symbol><symbol id="instagram" viewBox="0 0 32 32"><path d="M9.412.314h13.176c5.02 0 9.098 4.078 9.098 9.098v13.176a9.098 9.098 0 0 1-9.098 9.098H9.412c-5.02 0-9.098-4.078-9.098-9.098V9.412A9.098 9.098 0 0 1 9.412.314zm-.314 3.137a5.646 5.646 0 0 0-5.647 5.647v13.804a5.643 5.643 0 0 0 5.647 5.647h13.804a5.646 5.646 0 0 0 5.647-5.647V9.098a5.643 5.643 0 0 0-5.647-5.647H9.098zm15.137 2.353a1.957 1.957 0 0 1 1.961 1.96 1.958 1.958 0 0 1-3.347 1.387 1.961 1.961 0 0 1 1.386-3.346zM16 8.157a7.843 7.843 0 1 1 0 15.686 7.843 7.843 0 0 1 0-15.686zm0 3.137a4.704 4.704 0 0 0-3.328 8.034 4.71 4.71 0 0 0 6.656 0 4.704 4.704 0 0 0 0-6.656A4.704 4.704 0 0 0 16 11.294z"/></symbol><symbol id="menuLineFirst"><path d="M20 29h60s14.499-.183 14.533 37.711c.01 11.27-3.567 14.96-9.274 14.958C79.552 81.668 75 74.999 75 74.999L25 25"/></symbol><symbol id="menuLineSecond"><path d="M20 50h60"/></symbol><symbol id="menuLineThird"><path d="M20 71h60s14.499.183 14.533-37.711c.01-11.27-3.567-14.96-9.274-14.958-5.707.001-10.259 6.67-10.259 6.67L25 75"/></symbol><symbol id="logo" viewBox="0 0 80 38" fill="none" xmlns="http://www.w3.org/2000/svg"><path d="m37.856 3.17-5.602-.613V0h13.62l7.246 23.015 1.696 6.495 1.542-6.495L63.554 0H77.07v2.557l-5.653.614 4.112 31.76 4.471.563V38H65.198v-2.506l4.677-.511-2.313-22.964-1.079-9.871-2.159 7.365-8.583 26.748h-3.34l-8.326-24.498-3.033-9.666-.925 9.922-2.056 22.964 5.089.51V38H29.735v-2.506l4.369-.511L37.856 3.17Z" fill="#395C4B"/><path d="M17.423 18.105c1.37.511 2.741 1.654 4.112 3.427 1.37 1.738 3.015 4.108 4.934 7.109 1.302 2.114 2.312 3.665 3.032 4.654.72.954 1.336 1.5 1.85 1.636l1.953.563V38h-6.373c-.788 0-1.679-.665-2.672-1.995-.96-1.364-2.21-3.426-3.752-6.188-1.748-3.103-3.204-5.455-4.369-7.058-1.165-1.602-2.278-2.404-3.34-2.404h-3.29v14.576l4.574.614V38H0v-2.557l4.163-.512V3.171L0 2.557V0h13.774v2.557l-4.266.614V17.9h4.42L24.31 3.17l-4.317-.614V0h12.643v2.557l-4.06.614-11.153 14.934Z" fill="#F1F6F6"/></symbol><symbol id="right" viewBox="0 0 1 1"><path d="M.047 1A.05.05 0 0 0 .08.987L.543.531a.046.046 0 0 0 0-.064L.08.011A.044.044 0 0 0 .05 0a.044.044 0 0 0-.033.014.048.048 0 0 0-.014.033c0 .011.004.021.011.029l.43.423-.43.423C.006.93 0 .942 0 .954s.005.024.013.032a.05.05 0 0 0 .033.013z"/></symbol><symbol id="left" viewBox="0 0 1 1"><path d="M.509 1A.049.049 0 0 1 .476.987L.013.531a.046.046 0 0 1 0-.064L.476.011A.044.044 0 0 1 .506 0c.013 0 .025.005.033.014.008.008.014.02.014.033a.044.044 0 0 1-.011.029l-.43.423.43.423a.046.046 0 0 1 0 .064.05.05 0 0 1-.033.013z"/></symbol><symbol id="round" viewBox="0 0 49 32"><path fill="#395c4b" style="fill:var(--color1,#395c4b)" d="M24.727.97C11.345.97.484 6.4.484 13.091c0 5.43 7.127 10.012 16.97 11.564v4.897c0 1.091 1.309 1.623 2.061.848l6.764-6.764a1.197 1.197 0 0 0 0-1.72l-6.764-6.764a1.213 1.213 0 0 0-2.061.867v3.69c-7.636-1.357-12.121-4.607-12.121-6.618 0-2.57 7.369-7.273 19.393-7.273s19.395 4.703 19.395 7.273c0 1.6-2.909 4.073-8.049 5.673a2.375 2.375 0 0 0-1.648 2.258v.022-.001c0 1.623 1.575 2.812 3.103 2.327 6.861-2.134 11.443-5.94 11.443-10.279C48.97 6.4 38.109.97 24.727.97z"/></symbol></defs></svg>