<svg aria-hidden="true" style="position: absolute; width: 0; height: 0; overflow: hidden;" version="1.1" xmlns="http://www.w3.org/2000/svg" xmlns:xlink="http://www.w3.org/1999/xlink">
<defs>
<symbol id="star_small" viewBox="0 0 1 1">
<path fill="#f1f6f6" style="fill: var(--color1, #f1f6f6)" d="M0.501 0.027c0.004-0.012 0.015-0.020 0.028-0.020s0.024 0.008 0.028 0.020l0 0 0.097 0.3c0.004 0.012 0.015 0.020 0.028 0.020h0.316c0.016 0 0.029 0.013 0.029 0.029 0 0.010-0.005 0.018-0.012 0.024l-0 0-0.255 0.185c-0.007 0.005-0.012 0.014-0.012 0.024 0 0.003 0.001 0.006 0.002 0.009l-0-0 0.097 0.3c0.001 0.003 0.001 0.006 0.001 0.009 0 0.016-0.013 0.029-0.029 0.029-0.007 0-0.013-0.002-0.017-0.006l0 0-0.255-0.185c-0.005-0.004-0.011-0.006-0.017-0.006s-0.013 0.002-0.017 0.006l0-0-0.255 0.185c-0.005 0.004-0.011 0.006-0.017 0.006-0.016 0-0.029-0.013-0.029-0.029 0-0.003 0.001-0.006 0.002-0.009l-0 0 0.098-0.3c0.001-0.003 0.001-0.006 0.001-0.009 0-0.010-0.005-0.018-0.012-0.024l-0-0-0.255-0.185c-0.007-0.005-0.012-0.014-0.012-0.024 0-0.016 0.013-0.029 0.029-0.029h0.316c0.013-0 0.024-0.008 0.028-0.020l0-0 0.097-0.3z"></path>
</symbol>
<symbol id="star" viewBox="0 0 1 1">
<path fill="#F1F6F6" style="fill: var(--color1, #F1F6F6)" d="M0.464 0.028c0.005-0.016 0.019-0.027 0.036-0.027s0.032 0.011 0.036 0.027l0 0 0.092 0.296c0.005 0.016 0.019 0.027 0.036 0.028h0.298c0.037 0 0.052 0.049 0.022 0.072l-0.241 0.183c-0.010 0.008-0.016 0.019-0.016 0.032 0 0.004 0.001 0.009 0.002 0.013l-0-0 0.092 0.296c0.011 0.037-0.029 0.067-0.059 0.045l-0.241-0.183c-0.006-0.005-0.014-0.008-0.022-0.008s-0.016 0.003-0.022 0.008l0-0-0.241 0.183c-0.030 0.023-0.070-0.008-0.059-0.045l0.092-0.296c0.001-0.004 0.002-0.008 0.002-0.012 0-0.013-0.006-0.025-0.016-0.032l-0-0-0.241-0.183c-0.030-0.023-0.015-0.072 0.022-0.072h0.298c0.017-0 0.031-0.012 0.036-0.027l0-0 0.092-0.296z"></path>
</symbol>
<symbol id="menu" viewBox="0 0 2 1">
<path fill="none" stroke="#f4f4f4" style="stroke: var(--color2, #f4f4f4)" stroke-linejoin="miter" stroke-linecap="round" stroke-miterlimit="10" stroke-width="0.1579" d="M0.105 0.105h1.474M0.105 0.526h1.474M0.105 0.895h1.474"></path>
</symbol>
<symbol id="close" viewBox="0 0 1 1">
<path fill="none" stroke="#f4f4f4" style="stroke: var(--color2, #f4f4f4)" stroke-linejoin="round" stroke-linecap="round" stroke-miterlimit="4" stroke-width="0.0909" d="M0.955 0.955l-0.909-0.909M0.955 0.045l-0.909 0.909"></path>
</symbol>
<symbol id="right" viewBox="0 0 1 1">
<path fill="#395c4b" style="fill: var(--color1, #395c4b)" d="M0.047 1c0.012-0 0.024-0.005 0.033-0.013l0.463-0.456c0.008-0.008 0.013-0.020 0.013-0.032s-0.005-0.024-0.013-0.032l-0-0-0.463-0.456c-0.008-0.007-0.018-0.011-0.030-0.011-0.013 0-0.025 0.005-0.033 0.014l0-0c-0.008 0.008-0.014 0.020-0.014 0.033 0 0.011 0.004 0.021 0.011 0.029l-0-0 0.43 0.423-0.43 0.423c-0.008 0.008-0.014 0.020-0.014 0.032s0.005 0.024 0.013 0.032l0 0c0.009 0.008 0.021 0.013 0.033 0.013z"></path>
</symbol>
<symbol id="left" viewBox="0 0 1 1">
<path fill="#a3a5a3" style="fill: var(--color3, #a3a5a3)" d="M0.509 1c-0.013-0-0.024-0.005-0.033-0.013l0 0-0.463-0.456c-0.008-0.008-0.013-0.020-0.013-0.032s0.005-0.024 0.013-0.032l0-0 0.463-0.456c0.008-0.007 0.018-0.011 0.030-0.011 0.013 0 0.025 0.005 0.033 0.014l-0-0c0.008 0.008 0.014 0.020 0.014 0.033 0 0.011-0.004 0.021-0.011 0.029l0-0-0.43 0.423 0.43 0.423c0.008 0.008 0.013 0.020 0.013 0.032s-0.005 0.024-0.013 0.032l-0 0c-0.009 0.008-0.021 0.013-0.033 0.013z"></path>
</symbol>
<symbol id="bus" viewBox="0 0 1 1">
<path fill="#395c4b" style="fill: var(--color1, #395c4b)" d="M0.118 1c-0.015 0-0.027-0.005-0.037-0.015s-0.015-0.022-0.015-0.037v-0.107c-0.015-0.017-0.028-0.036-0.037-0.057l-0.001-0.001c-0.010-0.021-0.014-0.045-0.014-0.070v-0.497c0-0.072 0.034-0.125 0.101-0.159s0.173-0.050 0.318-0.050c0.15 0 0.257 0.016 0.322 0.048s0.097 0.086 0.097 0.161v0.497c0 0.025-0.005 0.049-0.014 0.070s-0.023 0.042-0.038 0.058l0-0v0.107c0 0.015-0.005 0.027-0.015 0.037s-0.022 0.015-0.037 0.015h-0.052c-0.015 0-0.027-0.005-0.037-0.015s-0.015-0.022-0.015-0.037v-0.052h-0.418v0.052c0 0.015-0.005 0.027-0.015 0.037s-0.022 0.015-0.037 0.015h-0.052zM0.118 0.425h0.627v-0.157h-0.627v0.157zM0.248 0.739c0.022 0 0.040-0.008 0.056-0.023s0.023-0.034 0.023-0.056-0.008-0.040-0.023-0.056c-0.015-0.015-0.034-0.023-0.056-0.023s-0.040 0.008-0.056 0.023c-0.015 0.015-0.023 0.034-0.023 0.056s0.008 0.040 0.023 0.056c0.015 0.015 0.034 0.023 0.056 0.023zM0.614 0.739c0.022 0 0.040-0.008 0.056-0.023s0.023-0.034 0.023-0.056-0.008-0.040-0.023-0.056c-0.015-0.015-0.034-0.023-0.056-0.023s-0.040 0.008-0.056 0.023c-0.015 0.015-0.023 0.034-0.023 0.056s0.008 0.040 0.023 0.056c0.015 0.015 0.034 0.023 0.056 0.023z"></path>
</symbol>
<symbol id="place" viewBox="0 0 1 1">
<path fill="#f1f6f6" style="fill: var(--color4, #f1f6f6)" d="M0.353 0c-0.195 0-0.353 0.156-0.353 0.35 0 0.263 0.353 0.65 0.353 0.65s0.353-0.387 0.353-0.65c0-0.194-0.158-0.35-0.353-0.35zM0.353 0.475c-0 0-0 0-0 0-0.035 0-0.066-0.014-0.089-0.037l0 0c-0.023-0.023-0.037-0.054-0.037-0.088v-0c0-0.033 0.013-0.065 0.037-0.088s0.054-0.037 0.089-0.037c0 0 0 0 0 0h-0c0.033 0 0.066 0.013 0.089 0.037s0.037 0.054 0.037 0.088v0c-0 0.035-0.014 0.066-0.037 0.088l-0 0c-0.023 0.023-0.054 0.037-0.089 0.037-0 0-0 0-0 0h0z"></path>
</symbol>
<symbol id="phone" viewBox="0 0 1 1">
<path fill="#f1f6f6" style="fill: var(--color4, #f1f6f6)" d="M0.494 0h-0.376c-0 0-0 0-0 0-0.032 0-0.061 0.013-0.083 0.033l0-0c-0.021 0.020-0.034 0.049-0.034 0.080v0.773c0 0.030 0.012 0.059 0.034 0.080s0.051 0.033 0.083 0.033c0 0 0 0 0 0h0.376c0 0 0 0 0 0 0.032 0 0.061-0.013 0.083-0.033l-0 0c0.021-0.020 0.034-0.049 0.034-0.080v-0.773c-0-0.032-0.013-0.060-0.034-0.080l-0-0c-0.021-0.021-0.051-0.033-0.083-0.033-0 0-0 0-0 0h0zM0.306 0.955c-0.039 0-0.071-0.030-0.071-0.068s0.031-0.068 0.071-0.068c0.039 0 0.071 0.030 0.071 0.068s-0.031 0.068-0.071 0.068zM0.517 0.773h-0.423v-0.636h0.423v0.636z"></path>
</symbol>
<symbol id="email" viewBox="0 0 1 1">
<path fill="#f1f6f6" style="fill: var(--color4, #f1f6f6)" d="M1.177 0h-1.046c-0.072 0-0.13 0.056-0.13 0.125l-0.001 0.75c0 0.069 0.059 0.125 0.131 0.125h1.046c0.072 0 0.131-0.056 0.131-0.125v-0.75c0-0.069-0.059-0.125-0.131-0.125zM1.151 0.266l-0.462 0.276c-0.010 0.006-0.022 0.009-0.035 0.009s-0.025-0.003-0.035-0.010l0 0-0.462-0.276c-0.007-0.004-0.012-0.008-0.017-0.014l-0-0c-0.007-0.009-0.012-0.020-0.012-0.032 0-0.011 0.003-0.020 0.009-0.028l-0 0c0.004-0.006 0.009-0.011 0.015-0.015l0-0c0.009-0.006 0.020-0.009 0.032-0.009s0.023 0.003 0.032 0.010l-0-0 0.438 0.262 0.438-0.262c0.009-0.006 0.020-0.009 0.032-0.009s0.023 0.004 0.032 0.010l-0-0c0.006 0.004 0.011 0.009 0.015 0.015 0.005 0.008 0.008 0.018 0.008 0.028 0 0.005-0.001 0.009-0.002 0.013l0-0c-0.002 0.007-0.005 0.013-0.010 0.019s-0.010 0.010-0.017 0.014l-0 0z"></path>
</symbol>
<symbol id="facebook" viewBox="0 0 1 1">
<path fill="#f1f6f6" style="fill: var(--color4, #f1f6f6)" d="M0.5 0.012c-0.27 0-0.49 0.22-0.49 0.491 0 0.245 0.179 0.449 0.414 0.485v-0.343h-0.124v-0.142h0.124v-0.108c0-0.123 0.073-0.191 0.185-0.191 0.053 0 0.109 0.009 0.109 0.009v0.121h-0.062c-0.061 0-0.080 0.038-0.080 0.076v0.092h0.136l-0.022 0.142h-0.114v0.343c0.236-0.038 0.414-0.24 0.414-0.484 0-0 0-0.001-0-0.001v0c0-0.271-0.221-0.491-0.49-0.491z"></path>
</symbol>
<symbol id="instagram" viewBox="0 0 1 1">
<path fill="#f1f6f6" style="fill: var(--color4, #f1f6f6)" d="M0.294 0.010h0.412c0.157 0 0.284 0.127 0.284 0.284v0.412c0 0.157-0.127 0.284-0.284 0.284h-0.412c-0.157 0-0.284-0.127-0.284-0.284v-0.412c0-0.157 0.127-0.284 0.284-0.284v0zM0.284 0.108c-0.097 0-0.176 0.079-0.176 0.176v0 0.431c0 0.098 0.079 0.176 0.176 0.176h0.431c0.097 0 0.176-0.079 0.176-0.176v0-0.431c0-0.098-0.079-0.176-0.176-0.176h-0.431zM0.757 0.181c0.034 0 0.061 0.027 0.061 0.061s-0.027 0.061-0.061 0.061v0c-0.034 0-0.061-0.027-0.061-0.061s0.027-0.061 0.061-0.061v0zM0.5 0.255c0.135 0 0.245 0.11 0.245 0.245s-0.11 0.245-0.245 0.245v0c-0.135 0-0.245-0.11-0.245-0.245s0.11-0.245 0.245-0.245v0zM0.5 0.353c-0.081 0-0.147 0.066-0.147 0.147s0.066 0.147 0.147 0.147v0c0.081 0 0.147-0.066 0.147-0.147s-0.066-0.147-0.147-0.147v0z"></path>
</symbol>
<symbol id="telegram" viewBox="0 0 1 1">
<path fill="#f1f6f6" style="fill: var(--color4, #f1f6f6)" d="M0.5 0.010c-0.271 0-0.49 0.219-0.49 0.49s0.219 0.49 0.49 0.49v0c0.271 0 0.49-0.219 0.49-0.49s-0.219-0.49-0.49-0.49v0zM0.656 0.753c-0.005 0.013-0.018 0.022-0.032 0.022-0.006 0-0.012-0.002-0.017-0.005l0 0-0.133-0.103-0.085 0.079c-0.002 0.002-0.005 0.003-0.009 0.003-0.002 0-0.004-0-0.005-0.001l0 0 0.016-0.147 0.001 0 0-0.003s0.239-0.218 0.249-0.227c0.010-0.009 0.007-0.011 0.007-0.011 0.001-0.011-0.018 0-0.018 0l-0.317 0.204-0.132-0.045s-0.020-0.007-0.022-0.023c-0.002-0.016 0.023-0.025 0.023-0.025l0.525-0.209s0.043-0.019 0.043 0.013l-0.094 0.478z"></path>
</symbol>
<symbol id="icon-close" viewBox="0 0 1 1">
<path fill="none" stroke="#395c4b" style="stroke: var(--color1, #395c4b)" stroke-linejoin="round" stroke-linecap="round" stroke-miterlimit="4" stroke-width="0.1111" d="M0.917 0.917l-0.833-0.833M0.917 0.083l-0.833 0.833"></path>
</symbol>
<symbol id="round" viewBox="0 0 2 1">
<path fill="#395c4b" style="fill: var(--color1, #395c4b)" d="M0.773 0.030c-0.418 0-0.758 0.17-0.758 0.379 0 0.17 0.223 0.313 0.53 0.361v0.153c0 0.034 0.041 0.051 0.064 0.026l0.211-0.211c0.007-0.007 0.011-0.016 0.011-0.027s-0.004-0.020-0.011-0.027l-0-0-0.211-0.211c-0.007-0.007-0.016-0.011-0.026-0.011-0.021 0-0.038 0.017-0.038 0.038 0 0 0 0 0 0v-0 0.115c-0.239-0.042-0.379-0.144-0.379-0.207 0-0.080 0.23-0.227 0.606-0.227s0.606 0.147 0.606 0.227c0 0.050-0.091 0.127-0.252 0.177-0.030 0.010-0.052 0.038-0.052 0.071 0 0 0 0 0 0.001v-0c0 0.051 0.049 0.088 0.097 0.073 0.214-0.067 0.358-0.186 0.358-0.321 0-0.209-0.339-0.379-0.758-0.379z"></path>
</symbol>
</defs>
</svg>
