<svg aria-hidden="true" style="position: absolute; width: 0; height: 0; overflow: hidden;" version="1.1" xmlns="http://www.w3.org/2000/svg" xmlns:xlink="http://www.w3.org/1999/xlink">
<defs>
<symbol id="phone" viewBox="0 0 20 32">
<path fill="#f1f6f6" style="fill: var(--color1, #f1f6f6)" d="M15.795 0h-12.034c-0.997 0-1.954 0.383-2.659 1.065s-1.101 1.607-1.101 2.571v24.727c0 0.964 0.396 1.889 1.101 2.571s1.662 1.065 2.659 1.065h12.034c0.997 0 1.954-0.383 2.659-1.065s1.102-1.607 1.102-2.571v-24.727c0-0.964-0.396-1.889-1.102-2.571s-1.662-1.065-2.659-1.065zM9.778 30.546c-1.249 0-2.256-0.975-2.256-2.182s1.008-2.182 2.256-2.182c1.249 0 2.256 0.974 2.256 2.182s-1.008 2.182-2.256 2.182zM16.547 24.727h-13.538v-20.364h13.538v20.364z"></path>
</symbol>
<symbol id="place" viewBox="0 0 23 32">
<path fill="#f1f6f6" style="fill: var(--color1, #f1f6f6)" d="M11.294-0c-6.244 0-11.294 5.008-11.294 11.2 0 8.4 11.294 20.8 11.294 20.8s11.294-12.4 11.294-20.8c0-6.192-5.050-11.2-11.294-11.2zM11.294 15.2c-1.070 0-2.096-0.421-2.852-1.172s-1.181-1.768-1.181-2.828c0-1.061 0.425-2.078 1.181-2.828s1.782-1.172 2.852-1.172c1.070 0 2.096 0.421 2.852 1.172s1.181 1.768 1.181 2.828c0 1.061-0.425 2.078-1.181 2.828s-1.782 1.172-2.852 1.172z"></path>
</symbol>
<symbol id="star" viewBox="0 0 32 32">
<path fill="#395c4b" style="fill: var(--color2, #395c4b)" d="M14.842 0.881c0.364-1.175 1.951-1.175 2.316 0l2.942 9.484c0.163 0.525 0.631 0.881 1.158 0.881h9.522c1.18 0 1.67 1.581 0.716 2.307l-7.703 5.862c-0.427 0.325-0.605 0.9-0.442 1.426l2.942 9.484c0.364 1.175-0.919 2.152-1.874 1.426l-7.703-5.862c-0.427-0.325-1.005-0.325-1.431 0l-7.703 5.862c-0.954 0.726-2.238-0.251-1.874-1.426l2.942-9.484c0.163-0.525-0.016-1.101-0.442-1.426l-7.703-5.862c-0.954-0.726-0.464-2.307 0.716-2.307h9.522c0.527 0 0.995-0.356 1.158-0.881l2.942-9.484z"></path>
</symbol>
<symbol id="star_small" viewBox="0 0 1 1">
<path fill="#f1f6f6" style="fill: var(--color1, #f1f6f6)" d="M0.501 0.027c0.004-0.012 0.015-0.020 0.028-0.020s0.024 0.008 0.028 0.020l0 0 0.097 0.3c0.004 0.012 0.015 0.020 0.028 0.020h0.316c0.016 0 0.029 0.013 0.029 0.029 0 0.010-0.005 0.018-0.012 0.024l-0 0-0.255 0.185c-0.007 0.005-0.012 0.014-0.012 0.024 0 0.003 0.001 0.006 0.002 0.009l-0-0 0.097 0.3c0.001 0.003 0.001 0.006 0.001 0.009 0 0.016-0.013 0.029-0.029 0.029-0.007 0-0.013-0.002-0.017-0.006l0 0-0.255-0.185c-0.005-0.004-0.011-0.006-0.017-0.006s-0.013 0.002-0.017 0.006l0-0-0.255 0.185c-0.005 0.004-0.011 0.006-0.017 0.006-0.016 0-0.029-0.013-0.029-0.029 0-0.003 0.001-0.006 0.002-0.009l-0 0 0.098-0.3c0.001-0.003 0.001-0.006 0.001-0.009 0-0.010-0.005-0.018-0.012-0.024l-0-0-0.255-0.185c-0.007-0.005-0.012-0.014-0.012-0.024 0-0.016 0.013-0.029 0.029-0.029h0.316c0.013-0 0.024-0.008 0.028-0.020l0-0 0.097-0.3z"></path>
</symbol>
<symbol id="telegram" viewBox="0 0 32 32">
<path d="M15.991 0.314c-3.102 0-6.135 0.92-8.715 2.644s-4.59 4.173-5.777 7.040c-1.187 2.866-1.498 6.020-0.893 9.063s2.099 5.838 4.293 8.032c2.194 2.194 4.989 3.688 8.032 4.293s6.197 0.295 9.063-0.893c2.866-1.187 5.316-3.198 7.040-5.777s2.644-5.612 2.644-8.715c0-2.060-0.406-4.1-1.194-6.003s-1.944-3.632-3.4-5.089c-1.457-1.457-3.186-2.612-5.089-3.4s-3.943-1.194-6.003-1.194zM20.979 24.082c-0.059 0.147-0.148 0.279-0.262 0.388s-0.25 0.193-0.399 0.245c-0.149 0.052-0.307 0.072-0.464 0.058s-0.31-0.061-0.447-0.139l-4.259-3.31-2.733 2.522c-0.063 0.047-0.138 0.077-0.216 0.088s-0.158 0.002-0.231-0.027l0.524-4.689 0.016 0.014 0.011-0.093c0 0 7.663-6.977 7.975-7.274 0.317-0.296 0.212-0.361 0.212-0.361 0.019-0.361-0.566 0-0.566 0l-10.154 6.532-4.227-1.44c0 0-0.649-0.232-0.711-0.745-0.064-0.508 0.731-0.784 0.731-0.784l16.811-6.679c0 0 1.382-0.615 1.382 0.405l-2.993 15.288z"></path>
</symbol>
<symbol id="bus" viewBox="0 0 28 32">
<path fill="#395c4b" style="fill: var(--color2, #395c4b)" d="M3.765 32c-0.474 0-0.872-0.161-1.193-0.482-0.32-0.32-0.48-0.717-0.48-1.191v-3.43c-0.502-0.558-0.906-1.178-1.213-1.862-0.307-0.683-0.46-1.428-0.46-2.237v-15.895c0-2.315 1.074-4.009 3.221-5.083 2.147-1.073 5.535-1.61 10.165-1.61 4.796 0 8.227 0.516 10.29 1.548s3.095 2.747 3.095 5.145v15.895c0 0.809-0.153 1.554-0.46 2.237-0.307 0.684-0.711 1.305-1.213 1.862v3.43c0 0.474-0.161 0.871-0.482 1.191-0.32 0.321-0.717 0.482-1.191 0.482h-1.673c-0.474 0-0.871-0.161-1.191-0.482-0.321-0.32-0.482-0.717-0.482-1.191v-1.673h-13.386v1.673c0 0.474-0.16 0.871-0.48 1.191-0.321 0.321-0.719 0.482-1.193 0.482h-1.673zM3.765 13.595h20.078v-5.020h-20.078v5.020zM7.948 23.634c0.697 0 1.29-0.244 1.777-0.733 0.489-0.487 0.733-1.080 0.733-1.777s-0.244-1.289-0.733-1.777c-0.487-0.489-1.080-0.733-1.777-0.733s-1.289 0.244-1.777 0.733c-0.489 0.487-0.733 1.080-0.733 1.777s0.244 1.289 0.733 1.777c0.487 0.489 1.080 0.733 1.777 0.733zM19.66 23.634c0.697 0 1.289-0.244 1.777-0.733 0.489-0.487 0.733-1.080 0.733-1.777s-0.244-1.289-0.733-1.777c-0.487-0.489-1.080-0.733-1.777-0.733s-1.289 0.244-1.777 0.733c-0.489 0.487-0.733 1.080-0.733 1.777s0.244 1.289 0.733 1.777c0.487 0.489 1.080 0.733 1.777 0.733z"></path>
</symbol>
<symbol id="email" viewBox="0 0 42 32">
<path fill="#f1f6f6" style="fill: var(--color1, #f1f6f6)" d="M37.661 0h-33.477c-2.302 0-4.164 1.8-4.164 4l-0.021 24c0 2.2 1.883 4 4.185 4h33.477c2.302 0 4.185-1.8 4.185-4v-24c0-2.2-1.883-4-4.185-4zM36.824 8.5l-14.793 8.84c-0.67 0.4-1.548 0.4-2.218 0l-14.793-8.84c-0.21-0.113-0.394-0.265-0.54-0.447s-0.253-0.391-0.312-0.614c-0.060-0.223-0.071-0.455-0.034-0.682s0.122-0.445 0.249-0.64c0.128-0.195 0.295-0.363 0.493-0.495s0.421-0.223 0.657-0.269c0.236-0.046 0.479-0.047 0.714-0.001s0.459 0.137 0.657 0.268l14.018 8.38 14.018-8.38c0.198-0.131 0.421-0.222 0.657-0.268s0.479-0.046 0.714 0.001c0.236 0.046 0.459 0.138 0.657 0.269s0.365 0.3 0.493 0.495c0.127 0.195 0.212 0.413 0.249 0.64s0.025 0.459-0.034 0.682c-0.060 0.223-0.166 0.432-0.313 0.614s-0.33 0.335-0.54 0.447z"></path>
</symbol>
<symbol id="facebook" viewBox="0 0 32 32">
<path  d="M16 0.377c-8.627 0-15.686 7.043-15.686 15.718 0 7.843 5.741 14.353 13.239 15.529v-10.98h-3.984v-4.549h3.984v-3.467c0-3.937 2.337-6.102 5.929-6.102 1.71 0 3.498 0.298 3.498 0.298v3.875h-1.976c-1.945 0-2.557 1.208-2.557 2.447v2.949h4.361l-0.706 4.549h-3.655v10.98c3.696-0.584 7.062-2.47 9.49-5.318s3.758-6.47 3.749-10.212c0-8.675-7.059-15.718-15.686-15.718z"></path>
</symbol>
<symbol id="cross" viewBox="0 0 32 32">
<path d="M21 21L1 1M21 1L1 21" stroke="#395C4B" stroke-width="2" stroke-linecap="round" stroke-linejoin="round"/>
</symbol>
<symbol id="instagram" viewBox="0 0 32 32">
<path  d="M9.412 0.314h13.176c5.020 0 9.098 4.078 9.098 9.098v13.176c0 2.413-0.959 4.727-2.665 6.433s-4.020 2.665-6.433 2.665h-13.176c-5.020 0-9.098-4.078-9.098-9.098v-13.176c0-2.413 0.959-4.727 2.665-6.433s4.020-2.665 6.433-2.665zM9.098 3.451c-1.498 0-2.934 0.595-3.993 1.654s-1.654 2.495-1.654 3.993v13.804c0 3.122 2.526 5.647 5.647 5.647h13.804c1.498 0 2.934-0.595 3.993-1.654s1.654-2.495 1.654-3.993v-13.804c0-3.122-2.526-5.647-5.647-5.647h-13.804zM24.235 5.804c0.52 0 1.019 0.207 1.387 0.574s0.574 0.866 0.574 1.386c0 0.52-0.207 1.019-0.574 1.387s-0.866 0.574-1.387 0.574c-0.52 0-1.019-0.207-1.386-0.574s-0.574-0.866-0.574-1.386c0-0.52 0.207-1.019 0.574-1.386s0.866-0.574 1.386-0.574zM16 8.157c2.080 0 4.075 0.826 5.546 2.297s2.297 3.466 2.297 5.546c0 2.080-0.826 4.075-2.297 5.546s-3.466 2.297-5.546 2.297c-2.080 0-4.075-0.826-5.546-2.297s-2.297-3.466-2.297-5.546c0-2.080 0.826-4.075 2.297-5.546s3.466-2.297 5.546-2.297zM16 11.294c-1.248 0-2.445 0.496-3.328 1.378s-1.378 2.080-1.378 3.328c0 1.248 0.496 2.445 1.378 3.328s2.079 1.378 3.328 1.378c1.248 0 2.445-0.496 3.328-1.378s1.378-2.080 1.378-3.328c0-1.248-0.496-2.445-1.378-3.328s-2.080-1.378-3.328-1.378z"></path>
</symbol>
<symbol id='menuLineFirst'>
 <path  d="M 20,29.000046 H 80.000231 C 80.000231,29.000046 94.498839,28.817352 94.532987,66.711331 94.543142,77.980673 90.966081,81.670246 85.259173,81.668997 79.552261,81.667751 75.000211,74.999942 75.000211,74.999942 L 25.000021,25.000058" />
</symbol>
<symbol id='menuLineSecond'>
<path d="M 20,50 H 80" /> 
</symbol>
<symbol id='menuLineThird'>
<path  d="M 20 70.999954 L 80.000231 70.999954 C 80.000231 70.999954 94.498839 71.182648 94.532987 33.288669 C 94.543142 22.019327 90.966081 18.329754 85.259173 18.331003 C 79.552261 18.332249 75.000211 25.000058 75.000211 25.000058 L 25.000021 74.999942" />
</symbol>
<symbol id='logo' viewBox="0 0 80 38" fill="none" xmlns="http://www.w3.org/2000/svg">
<path d="M37.8557 3.17093L32.2536 2.5572V0H45.8734L53.1202 23.0148L54.8162 29.5101L56.3581 23.0148L63.5535 0H77.0705V2.5572L71.417 3.17093L75.5286 34.9314L80 35.4939V38H65.1981V35.4939L69.8751 34.9825L67.5623 12.0188L66.483 2.14805L64.3244 9.51278L55.7414 36.2611H52.4007L44.0746 11.7631L41.0423 2.0969L40.1171 12.0188L38.0613 34.9825L43.1495 35.4939V38H29.7353V35.4939L34.1039 34.9825L37.8557 3.17093Z" fill="#395C4B"/>
<path d="M17.4231 18.105C18.7936 18.6164 20.1641 19.7586 21.5347 21.5316C22.9052 23.2705 24.5499 25.6402 26.4686 28.6406C27.7707 30.7546 28.7814 32.306 29.501 33.2948C30.2205 34.2494 30.8373 34.795 31.3512 34.9314L33.3042 35.4939V38H26.9312C26.1431 38 25.2523 37.3351 24.2586 36.0054C23.2993 34.6415 22.0486 32.5787 20.5068 29.817C18.7593 26.7142 17.3031 24.3616 16.1382 22.7591C14.9732 21.1566 13.8596 20.3553 12.7975 20.3553H9.50816V34.9314L14.0823 35.5451V38H0V35.4428L4.16303 34.9314V3.17093L0 2.5572V0H13.774V2.5572L9.50816 3.17093V17.9004H13.9282L24.31 3.17093L19.9928 2.5572V0H32.6361V2.5572L28.5759 3.17093L17.4231 18.105Z" fill="#F1F6F6"/>
</symbol>
<symbol id="right" viewBox="0 0 1 1">
<path d="M0.047 1c0.012-0 0.024-0.005 0.033-0.013l0.463-0.456c0.008-0.008 0.013-0.020 0.013-0.032s-0.005-0.024-0.013-0.032l-0-0-0.463-0.456c-0.008-0.007-0.018-0.011-0.030-0.011-0.013 0-0.025 0.005-0.033 0.014l0-0c-0.008 0.008-0.014 0.020-0.014 0.033 0 0.011 0.004 0.021 0.011 0.029l-0-0 0.43 0.423-0.43 0.423c-0.008 0.008-0.014 0.020-0.014 0.032s0.005 0.024 0.013 0.032l0 0c0.009 0.008 0.021 0.013 0.033 0.013z"></path>
</symbol>
<symbol id="left" viewBox="0 0 1 1">
<path d="M0.509 1c-0.013-0-0.024-0.005-0.033-0.013l0 0-0.463-0.456c-0.008-0.008-0.013-0.020-0.013-0.032s0.005-0.024 0.013-0.032l0-0 0.463-0.456c0.008-0.007 0.018-0.011 0.030-0.011 0.013 0 0.025 0.005 0.033 0.014l-0-0c0.008 0.008 0.014 0.020 0.014 0.033 0 0.011-0.004 0.021-0.011 0.029l0-0-0.43 0.423 0.43 0.423c0.008 0.008 0.013 0.020 0.013 0.032s-0.005 0.024-0.013 0.032l-0 0c-0.009 0.008-0.021 0.013-0.033 0.013z"></path>
</symbol>

<symbol id="round" viewBox="0 0 49 32">
<path fill="#395c4b" style="fill: var(--color1, #395c4b)" d="M24.727 0.97c-13.382 0-24.243 5.43-24.243 12.121 0 5.43 7.127 10.012 16.97 11.564v4.897c0 1.091 1.309 1.623 2.061 0.848l6.764-6.764c0.224-0.218 0.363-0.523 0.363-0.86s-0.139-0.642-0.363-0.86l-0-0-6.764-6.764c-0.218-0.214-0.518-0.346-0.848-0.346-0.67 0-1.213 0.543-1.213 1.213 0 0.002 0 0.004 0 0.006v-0 3.684c-7.636-1.357-12.121-4.607-12.121-6.618 0-2.57 7.369-7.273 19.393-7.273s19.395 4.703 19.395 7.273c0 1.6-2.909 4.073-8.049 5.673-0.964 0.315-1.648 1.207-1.648 2.258 0 0.007 0 0.015 0 0.022v-0.001c0 1.623 1.575 2.812 3.103 2.327 6.861-2.134 11.443-5.94 11.443-10.279 0-6.691-10.861-12.121-24.243-12.121z"></path>
</symbol>
</defs>
</svg>



