<svg aria-hidden="true" style="position: absolute; width: 0; height: 0; overflow: hidden;" version="1.1" xmlns="http://www.w3.org/2000/svg" xmlns:xlink="http://www.w3.org/1999/xlink">
<defs>
<symbol id="icon-email-3-1" viewBox="0 0 1 1">
<path fill="#f1f6f6" style="fill: var(--color1, #f1f6f6)" d="M0.84 0.175h-0.68c-0.047 0-0.085 0.037-0.085 0.081l-0 0.487c0 0.045 0.038 0.081 0.085 0.081h0.68c0.047 0 0.085-0.037 0.085-0.081v-0.487c0-0.045-0.038-0.081-0.085-0.081zM0.823 0.348l-0.3 0.18c-0.006 0.004-0.014 0.006-0.023 0.006s-0.016-0.002-0.023-0.006l0 0-0.3-0.18c-0.004-0.002-0.008-0.005-0.011-0.009l-0-0c-0.005-0.006-0.008-0.013-0.008-0.021 0-0.007 0.002-0.013 0.006-0.018l-0 0c0.003-0.004 0.006-0.007 0.010-0.010 0.006-0.004 0.013-0.006 0.020-0.006 0.003 0 0.005 0 0.008 0.001l-0-0c0.005 0.001 0.009 0.003 0.013 0.005l0.285 0.17 0.285-0.17c0.006-0.004 0.013-0.006 0.020-0.006 0.003 0 0.005 0 0.008 0.001l-0-0c0.005 0.001 0.009 0.003 0.013 0.005s0.007 0.006 0.010 0.010c0.003 0.005 0.005 0.012 0.005 0.018 0 0.003-0 0.006-0.001 0.009l0-0c-0.001 0.005-0.003 0.009-0.006 0.012s-0.007 0.007-0.011 0.009l-0 0z"></path>
</symbol>
</defs>
</svg>
